<svg id="becd4ed6-983c-4267-a9ef-ba1a19b5a08b" data-name="Layer 1" xmlns="http://www.w3.org/2000/svg" width="747.2108" height="570.00666" viewBox="0 0 747.2108 570.00666"><path d="M265.36558,212.82328a4.77608,4.77608,0,0,0-4.78143,4.75948l-1.17461,510.43858a4.77609,4.77609,0,0,0,4.75948,4.78144l411.21267.94627a4.77609,4.77609,0,0,0,4.78143-4.75948L681.33773,218.551a4.77608,4.77608,0,0,0-4.75947-4.78143Z" transform="translate(-226.3946 -164.99667)" fill="#e6e6e6"/><path d="M280.59565,228.12384a4.77609,4.77609,0,0,0-4.78143,4.75948L274.70987,712.791a4.77607,4.77607,0,0,0,4.75947,4.78143l380.68224.876A4.77608,4.77608,0,0,0,664.933,713.689l1.10435-479.90768a4.77608,4.77608,0,0,0-4.75947-4.78143Z" transform="translate(-226.3946 -164.99667)" fill="#fff"/><path d="M610.71032,436.51861l-280.5027-.64549a7.1557,7.1557,0,1,1,.03293-14.31136l280.5027.64549a7.1557,7.1557,0,0,1-.03293,14.31136Z" transform="translate(-226.3946 -164.99667)" fill="#e6e6e6"/><path d="M613.42553,303.19l-186.094-.42824c-2.62183-.006-4.73992-3.21467-4.73083-7.1666s2.14193-7.15079,4.76376-7.14476l186.094.42824c2.62214.006,4.73992,3.21467,4.73083,7.1666S616.04766,303.196,613.42553,303.19Z" transform="translate(-226.3946 -164.99667)" fill="#e6e6e6"/><path d="M613.33112,344.21586l-186.094-.42823c-2.62183-.006-4.73992-3.21468-4.73083-7.16661s2.14194-7.15079,4.76377-7.14475l186.094.42823c2.62214.006,4.73992,3.21468,4.73083,7.16661S615.95326,344.2219,613.33112,344.21586Z" transform="translate(-226.3946 -164.99667)" fill="#e6e6e6"/><path d="M610.60383,482.792l-280.5027-.64548a7.1557,7.1557,0,0,1,.03293-14.31136l280.50271.64548a7.1557,7.1557,0,0,1-.03294,14.31136Z" transform="translate(-226.3946 -164.99667)" fill="#e6e6e6"/><path d="M610.49735,529.06542l-280.5027-.64549a7.1557,7.1557,0,1,1,.03293-14.31136l280.5027.64549a7.1557,7.1557,0,1,1-.03293,14.31136Z" transform="translate(-226.3946 -164.99667)" fill="#e6e6e6"/><path d="M610.39087,575.33882l-280.5027-.64548a7.1557,7.1557,0,1,1,.03293-14.31137l280.5027.64549a7.1557,7.1557,0,0,1-.03293,14.31136Z" transform="translate(-226.3946 -164.99667)" fill="#e6e6e6"/><path d="M610.28438,621.61223l-280.5027-.64549a7.1557,7.1557,0,0,1,.03294-14.31136l280.5027.64549a7.1557,7.1557,0,0,1-.03294,14.31136Z" transform="translate(-226.3946 -164.99667)" fill="#e6e6e6"/><path d="M610.1779,667.88563l-280.5027-.64548a7.1557,7.1557,0,1,1,.03293-14.31137l280.5027.64549a7.1557,7.1557,0,1,1-.03293,14.31136Z" transform="translate(-226.3946 -164.99667)" fill="#e6e6e6"/><circle cx="134.61891" cy="151.44683" r="37.68669" fill="#3f3d56"/><path d="M418.80659,436.077" transform="translate(-226.3946 -164.99667)" fill="#e6e6e6"/><path d="M577.07913,305.34939,577.078,216.1827a50.44769,50.44769,0,0,0-100.86823-2.21847h11.1029a39.39479,39.39479,0,0,1,39.30744-37.86834c.19183,0,.38636.00162.57819.00433a39.41934,39.41934,0,0,1,38.783,40.00228V305.396c.00217.22759.00217.45464,0,.6611a26.425,26.425,0,0,1-26.38749,26.07428q-.16255,0-.32513-.00163a26.43823,26.43823,0,0,1-26.07157-26.77656l.06069-88.56629a13.29569,13.29569,0,0,1,26.58636-.08724V284.333a5.54887,5.54887,0,1,0,11.09775,0l-.00109-67.72116a24.39255,24.39255,0,0,0-48.78022.084L502.1,305.28219a37.53446,37.53446,0,0,0,37.03439,37.94421c.155.00217.3067.00271.46168.00271a37.54415,37.54415,0,0,0,37.48307-37.05769C577.08129,305.88206,577.08129,305.59215,577.07913,305.34939Z" transform="translate(-226.3946 -164.99667)" fill="#f39237"/></svg>